<?xml version="1.0" encoding="utf-8"?>
<!-- Generator: Adobe Illustrator 26.3.1, SVG Export Plug-In . SVG Version: 6.00 Build 0)  -->
<svg version="1.1" id="Layer_1" xmlns="http://www.w3.org/2000/svg" xmlns:xlink="http://www.w3.org/1999/xlink" x="0px" y="0px"
	 viewBox="0 0 1264.3 197.8" style="enable-background:new 0 0 1264.3 197.8;" xml:space="preserve">
<style type="text/css">
	.st0{fill:#FFFFFF;}
	.st1{fill:#0000FF;}
</style>
<g>
	<rect x="728.5" y="14.1" class="st0" width="6.1" height="169.6"/>
	<g>
		<g>
			<rect x="1038.8" y="129" class="st0" width="10.6" height="49"/>
			<rect x="1038.8" y="110.2" class="st0" width="10.6" height="10.6"/>
			<path class="st0" d="M846.4,127.3c-14.4,0-25.6,11.6-25.6,26.4c0,14.6,11.9,26.4,26.4,26.4c8.2,0,15.8-3.7,20.8-10.1l-9.4-5.1
				c-3,3.1-7.1,4.8-11.4,4.8c-6.6,0-12.6-4.1-14.9-10.3l-0.2-0.4H872v-5.2C872,138.9,860.8,127.3,846.4,127.3z M832,148.5l0.1-0.4
				c2.1-6.3,7.7-10.3,14.2-10.3c6.5,0,12.1,4,14.2,10.3l0.1,0.4H832z"/>
			<path class="st0" d="M793.6,148.7c-9.5-1.5-11.3-3.6-11.3-6.6c0-3.7,3.2-5.9,8.6-5.9c5.1,0,8.6,2.4,9.8,6.9h11
				c-1.2-10-8.6-15.8-20.8-15.8c-11.7,0-19.8,6.3-19.8,15.2c0,8.6,5.3,13,18.3,15.2c10,1.9,11.9,3.7,11.9,7.1c0,3.9-3.6,6.3-9.5,6.3
				c-4.4,0-9.8-1.2-11.5-8h-10.8c1.2,10.7,9.1,16.9,22.2,16.9c12.5,0,21-6.6,21-16.3C812.6,155.3,807,150.7,793.6,148.7z"/>
			<path class="st0" d="M974.9,155.6c0,8-5.6,13.6-13.7,13.6c-8.1,0-13.7-5.6-13.7-13.6v-26.4h-11v26.4c0,6.9,2.5,13.4,7.3,17.8
				c4.6,4.4,10.8,6.8,17.4,6.8c6.6,0,12.9-2.4,17.4-6.8c4.7-4.4,7.3-10.8,7.3-17.8v-26.4h-11V155.6z"/>
			<path class="st0" d="M906.7,137.8c4.9,0,9.5,2.2,12.5,6.1l9.5-4.7c-4.9-7.4-13.1-11.8-22-11.8c-14.6,0-26.4,11.8-26.4,26.4
				c0,14.6,11.9,26.4,26.4,26.4c8.9,0,17.1-4.4,22-11.8l-9.5-4.7c-3,3.9-7.6,6.1-12.5,6.1c-8.8,0-15.9-7.2-15.9-16
				C890.7,144.9,897.9,137.8,906.7,137.8z"/>
			<path class="st0" d="M1075.4,116.3h-11v13v10.5v15.7c0,6.9,2.5,13.4,7.3,17.8c1,1,2,1.9,3.2,2.5c4.1,2.7,9,4.2,14.2,4.2h4.5v-11
				h-4.5c-8.1,0-13.7-5.6-13.7-13.6v-15.7h18.2v-10.5h-18.2V116.3z"/>
			<path class="st0" d="M1010.3,129.1h-11v49.1h11v-20.8c0-9.9,8-17.9,17.9-17.9v-11c-6.8,0-13,2.5-17.9,6.4V129.1z"/>
			<path class="st0" d="M1135.9,129.4l-9.1,38.2h-1.7c-1.1,0-2.2-1.1-2.6-2.4l-9.1-35.9H1102l9.9,38.7c1.6,5.9,6.7,10,12.4,10.4
				l-4.6,19.4h10.7l4.6-19.2h0.1v-0.4l11.7-48.8H1135.9z"/>
		</g>
		<g>
			<path class="st0" d="M873.4,46.8c-14.6,0-26.4,11.9-26.4,26.4s11.9,26.4,26.4,26.4c14.6,0,26.4-11.9,26.4-26.4
				S887.9,46.8,873.4,46.8z M873.4,88.7c-8.5,0-15.5-6.9-15.5-15.5s6.9-15.5,15.5-15.5c8.5,0,15.5,6.9,15.5,15.5
				S881.9,88.7,873.4,88.7z"/>
			<path class="st0" d="M1256.9,53.4c-4.5-4.3-10.7-6.7-17.4-6.7c-5,0-9.8,1.4-13.8,3.9v-1.9h-11v22.6c0,0,0,0,0,0v5.5v21h11V71.2
				c0-8,5.7-13.5,13.8-13.5c8.1,0,13.8,5.6,13.8,13.5v26.4h11V71.2C1264.3,64.2,1261.7,57.9,1256.9,53.4z"/>
			<path class="st0" d="M1089.5,46.8c-5,0-9.8,1.4-13.8,3.9V29.2h-11v42.1c0,0,0,0,0,0v5.5v21h11V71.3c0-8,5.7-13.5,13.8-13.5
				c8.1,0,13.8,5.6,13.8,13.5v26.4h11V71.3c0-7-2.6-13.3-7.4-17.8C1102.4,49.1,1096.2,46.8,1089.5,46.8z"/>
			<path class="st0" d="M795.8,46.8c-5.8,0-11.1,1.9-15.5,5V29.2h-11v68.5h11v-3.1c4.4,3.1,9.7,5,15.5,5c14.6,0,26.4-11.9,26.4-26.4
				S810.4,46.8,795.8,46.8z M795.8,88.7c-8.5,0-15.5-6.9-15.5-15.5s6.9-15.5,15.5-15.5s15.5,6.9,15.5,15.5S804.4,88.7,795.8,88.7z"
				/>
			<path class="st0" d="M1165.5,52.2l-0.5-0.4c-4.5-3.3-9.9-5-15.4-5c-14.6,0-26.4,11.9-26.4,26.4s11.9,26.4,26.4,26.4
				c5.6,0,10.9-1.7,15.4-5l0.5-0.4v3.4h10.5V48.7h-10.5V52.2z M1149.6,89.2c-8.8,0-16-7.2-16-16c0-8.8,7.2-16,16-16
				c8.8,0,15.9,7.2,15.9,16C1165.5,82,1158.3,89.2,1149.6,89.2z"/>
			<path class="st0" d="M931,57.2c4.9,0,9.5,2.2,12.5,6.1l9.5-4.7c-4.9-7.4-13.1-11.8-22-11.8c-14.6,0-26.4,11.8-26.4,26.4
				c0,14.6,11.9,26.4,26.4,26.4c8.9,0,17.1-4.4,22-11.8l-9.5-4.7c-3,3.9-7.6,6.1-12.5,6.1c-8.8,0-16-7.2-16-16
				C915.1,64.4,922.2,57.2,931,57.2z"/>
			<path class="st0" d="M1033.7,57.2c4.9,0,9.5,2.2,12.5,6.1l9.5-4.7c-4.9-7.4-13.1-11.8-22-11.8c-14.6,0-26.4,11.8-26.4,26.4
				s11.9,26.4,26.4,26.4c8.9,0,17.1-4.4,22-11.8l-9.5-4.7c-3,3.9-7.6,6.1-12.5,6.1c-8.8,0-15.9-7.2-16-16
				C1017.7,64.4,1024.9,57.2,1033.7,57.2z"/>
			<polygon class="st0" points="1006.9,48.8 993.3,48.8 977.6,67.6 971.5,67.6 971.5,29.2 961,29.2 961,97.7 971.5,97.7 971.5,78.9 
				977.6,78.9 993.3,97.7 1006.9,97.7 986.6,73.3 			"/>
			<rect x="829.6" y="29.2" class="st0" width="10.6" height="68.5"/>
			<rect x="1190.9" y="48.7" class="st0" width="10.6" height="49"/>
			<rect x="1190.9" y="29.9" class="st0" width="10.6" height="10.6"/>
		</g>
	</g>
	<g>
		<path class="st0" d="M699.3,111.2c0-37.4-28.4-66.7-64.7-66.7c-36.3,0-64.7,29.3-64.7,66.7c0,36.8,29.9,66.7,66.7,66.7
			c20.7,0,39.8-9.3,52.5-25.6l-23.7-13c-7.6,7.8-17.8,12.1-28.8,12.1c-16.6,0-31.7-10.4-37.7-26l-0.4-1.1h100.8V111.2z M598.2,98
			l0.4-1.1c5.4-15.8,19.5-26,36-26s30.6,10.2,36,26l0.4,1.1H598.2z"/>
		<path class="st0" d="M549.7,111.2c0-37.4-28.4-66.7-64.7-66.7s-64.7,29.3-64.7,66.7c0,36.8,29.9,66.7,66.7,66.7
			c20.7,0,39.8-9.3,52.5-25.6l-23.7-13c-7.6,7.8-17.8,12.1-28.8,12.1c-16.6,0-31.7-10.4-37.7-26l-0.4-1.1h100.8V111.2z M448.6,98
			l0.4-1.1c5.4-15.8,19.5-26,36-26c16.5,0,30.6,10.2,36,26l0.4,1.1H448.6z"/>
		<path class="st0" d="M222.7,177.9c-36.8,0-66.7-29.9-66.7-66.7c0-36.8,29.9-66.7,66.7-66.7c22.4,0,43.1,11.1,55.6,29.8l-24,11.9
			c-7.7-9.7-19.2-15.3-31.6-15.3c-22.2,0-40.3,18.1-40.3,40.3c0,22.2,18.1,40.3,40.3,40.3c12.4,0,23.9-5.6,31.6-15.3l24,11.9
			C265.9,166.7,245.1,177.9,222.7,177.9z"/>
		<path class="st0" d="M107,49.4V58l-1.3-0.9c-11.4-8.3-24.9-12.6-39-12.6C29.9,44.5,0,74.4,0,111.2c0,36.8,29.9,66.7,66.7,66.7
			c14.1,0,27.6-4.4,39-12.6l1.3-0.9v8.6h26.4V49.4H107z M66.7,151.4c-22.2,0-40.3-18.1-40.3-40.3c0-22.2,18.1-40.3,40.3-40.3
			S107,89,107,111.2C107,133.4,88.9,151.4,66.7,151.4z"/>
		<polygon class="st0" points="380.1,173 340.5,125.4 324.9,125.4 324.9,173 298.5,173 298.5,0 324.9,0 324.9,96.9 340.5,96.9 
			380,49.4 414.4,49.4 363,111.2 414.5,173 		"/>
	</g>
</g>
</svg>
